<svg width="224" height="258" viewBox="0 0 224 258" fill="none" xmlns="http://www.w3.org/2000/svg">
<path d="M25 0L30.3033 19.6967L50 25L30.3033 30.3033L25 50L19.6967 30.3033L0 25L19.6967 19.6967L25 0Z" fill="white"/>
<path fill-rule="evenodd" clip-rule="evenodd" d="M170.728 93.2721L158 46L145.272 93.2721L98 106L145.272 118.728L158 166L160.192 157.858L160.818 160.182L162.749 159.662L161.228 154.012L170.728 118.728L206.012 109.228L211.662 110.749L212.182 108.818L209.858 108.192L218 106L170.728 93.2721ZM209.858 108.192L204.303 106.697L203.783 108.628L206.012 109.228L209.858 108.192ZM161.228 154.012L160.628 151.783L158.697 152.303L160.192 157.858L161.228 154.012ZM165.061 55.9393L165.007 55.9539L164.871 56.4593L164 56.2249L163.129 56.4593L162.993 55.9539L162.939 55.9393L164 52L165.061 55.9393ZM167.182 63.818L169.303 71.6967L167.372 72.2167L165.251 64.338L167.182 63.818ZM171.425 79.5754L173.546 87.4541L171.615 87.974L169.493 80.0954L171.425 79.5754ZM175.667 95.3327L176.728 99.2721L180.667 100.333L180.147 102.264L175.096 100.904L173.736 95.8527L175.667 95.3327ZM188.546 102.454L196.425 104.575L195.905 106.507L188.026 104.385L188.546 102.454ZM220.046 110.993L220.061 110.939L224 112L220.061 113.061L220.046 113.007L219.541 112.871L219.775 112L219.541 111.129L220.046 110.993ZM212.182 115.182L204.303 117.303L203.783 115.372L211.662 113.251L212.182 115.182ZM196.425 119.425L188.546 121.546L188.026 119.615L195.905 117.493L196.425 119.425ZM180.667 123.667L176.728 124.728L175.667 128.667L173.736 128.147L175.096 123.096L180.147 121.736L180.667 123.667ZM173.546 136.546L171.425 144.425L169.493 143.905L171.615 136.026L173.546 136.546ZM169.303 152.303L167.182 160.182L165.251 159.662L167.372 151.783L169.303 152.303ZM165.007 168.046L165.061 168.061L164 172L162.939 168.061L162.993 168.046L163.129 167.541L164 167.775L164.871 167.541L165.007 168.046ZM156.575 144.425L154.454 136.546L156.385 136.026L158.507 143.905L156.575 144.425ZM152.333 128.667L151.272 124.728L147.333 123.667L147.853 121.736L152.904 123.096L154.264 128.147L152.333 128.667ZM139.454 121.546L131.575 119.425L132.095 117.493L139.974 119.615L139.454 121.546ZM123.697 117.303L115.818 115.182L116.338 113.251L124.217 115.372L123.697 117.303ZM107.954 113.007L107.939 113.061L104 112L107.939 110.939L107.954 110.993L108.459 111.129L108.225 112L108.459 112.871L107.954 113.007ZM115.818 108.818L123.697 106.697L124.217 108.628L116.338 110.749L115.818 108.818ZM131.575 104.575L139.454 102.454L139.974 104.385L132.095 106.507L131.575 104.575ZM147.333 100.333L151.272 99.2721L152.333 95.3327L154.264 95.8527L152.904 100.904L147.853 102.264L147.333 100.333ZM154.454 87.4541L156.575 79.5754L158.507 80.0954L156.385 87.974L154.454 87.4541ZM158.697 71.6967L160.818 63.818L162.749 64.338L160.628 72.2167L158.697 71.6967Z" fill="white"/>
<path d="M60.3057 203.994L60.9746 206.475V206.476C60.708 206.547 60.5503 206.821 60.6221 207.088L61.5498 210.535C61.6216 210.802 61.8956 210.959 62.1621 210.888V210.887L62.8301 213.369H62.8311C62.5646 213.441 62.4061 213.715 62.4775 213.981L62.9414 215.705L63.0166 215.983L63.2949 216.059L65.0186 216.522C65.285 216.594 65.5581 216.435 65.6299 216.169L68.1123 216.837V216.838C68.0408 217.104 68.1984 217.378 68.4648 217.45L71.9121 218.378C72.1787 218.45 72.4526 218.292 72.5244 218.025V218.024L75.0049 218.693H75.0059C74.9341 218.96 75.092 219.235 75.3584 219.307L78.8057 220.234C79.0723 220.306 79.3471 220.148 79.4189 219.882V219.881L81.8994 220.549V220.55C81.8277 220.816 81.9863 221.091 82.2529 221.163L85.6992 222.091C85.9657 222.163 86.2406 222.005 86.3125 221.738V221.737L88.7939 222.405V222.406C88.7269 222.656 88.8616 222.909 89.0977 223C88.8931 223.079 88.7641 223.279 88.7773 223.494L88.7939 223.594L86.3125 224.262L86.2764 224.167C86.172 223.959 85.9324 223.846 85.6992 223.909L82.2529 224.837C82.0195 224.9 81.8694 225.118 81.8838 225.351L81.8994 225.45L79.4189 226.118C79.3561 225.885 79.1376 225.735 78.9053 225.749L78.8057 225.766L75.3584 226.693C75.0923 226.765 74.9337 227.039 75.0049 227.306L72.5244 227.975C72.4616 227.741 72.2439 227.591 72.0117 227.605L71.9121 227.622L68.4648 228.55C68.2317 228.613 68.0815 228.83 68.0957 229.062L68.1123 229.162L65.6299 229.83C65.5578 229.564 65.2848 229.406 65.0186 229.478L63.2949 229.941L63.0166 230.017L62.9414 230.295L62.4775 232.019C62.4061 232.285 62.564 232.558 62.8301 232.63L62.1621 235.112L62.0625 235.096C61.8637 235.084 61.6753 235.192 61.5859 235.37L61.5498 235.465L60.6221 238.912C60.5503 239.179 60.708 239.453 60.9746 239.524L60.3057 242.005C60.0394 241.934 59.7652 242.092 59.6934 242.358L58.7656 245.806C58.6938 246.072 58.8515 246.347 59.1182 246.419L58.4502 248.899C58.1836 248.828 57.9087 248.986 57.8369 249.253L56.9092 252.699C56.8374 252.966 56.9953 253.241 57.2617 253.312L56.5938 255.794C56.3442 255.727 56.0906 255.862 56 256.098C55.9093 255.862 55.6548 255.727 55.4053 255.794L54.7373 253.312C55.004 253.241 55.1626 252.966 55.0908 252.699L54.1631 249.253L54.127 249.158C54.0228 248.95 53.7822 248.837 53.5488 248.899L52.8809 246.419C53.1475 246.347 53.3062 246.072 53.2344 245.806L52.3066 242.358L52.2705 242.265C52.1664 242.057 51.9268 241.942 51.6934 242.005L51.0244 239.524C51.291 239.453 51.4497 239.179 51.3779 238.912L50.4502 235.465C50.3784 235.198 50.1044 235.041 49.8379 235.112H49.8369L49.1689 232.63C49.4354 232.558 49.5939 232.285 49.5225 232.019L49.0586 230.295L48.9834 230.017L48.7051 229.941L46.9814 229.478C46.7151 229.406 46.4411 229.564 46.3691 229.83L43.8867 229.162H43.8877C43.9592 228.896 43.8016 228.622 43.5352 228.55L40.0879 227.622L39.9883 227.605C39.7561 227.591 39.5374 227.741 39.4746 227.975L36.9941 227.306C37.0654 227.039 36.9078 226.765 36.6416 226.693L33.1943 225.766L33.0947 225.749C32.8624 225.735 32.6429 225.885 32.5801 226.118L30.0996 225.45H30.1006C30.1723 225.184 30.0137 224.909 29.7471 224.837L26.3008 223.909L26.2002 223.893C25.9683 223.878 25.7504 224.029 25.6875 224.262H25.6865L23.2051 223.594H23.2061C23.2732 223.344 23.1379 223.09 22.9014 223C23.1379 222.91 23.2732 222.656 23.2061 222.406L23.2051 222.405L25.6865 221.737L25.6875 221.738C25.7504 221.971 25.9683 222.122 26.2002 222.107L26.3008 222.091L29.7471 221.163C30.0137 221.091 30.1723 220.816 30.1006 220.55L30.0996 220.549L32.5801 219.881L32.5811 219.882C32.6439 220.115 32.8624 220.265 33.0947 220.251L33.1943 220.234L36.6416 219.307C36.8746 219.244 37.0248 219.026 37.0107 218.794L36.9941 218.693L39.4746 218.024L39.4756 218.025C39.5474 218.292 39.8213 218.45 40.0879 218.378L43.5352 217.45C43.8016 217.378 43.9592 217.104 43.8877 216.838L43.8867 216.837L46.3691 216.169C46.4319 216.402 46.6498 216.553 46.8818 216.539L46.9814 216.522L48.7051 216.059L48.9834 215.983L49.0586 215.705L49.5225 213.981C49.585 213.748 49.4716 213.509 49.2637 213.405L49.1689 213.369L49.8369 210.887L49.8379 210.888C50.071 210.95 50.3098 210.837 50.4141 210.63L50.4502 210.535L51.3779 207.088C51.4497 206.821 51.292 206.547 51.0254 206.476L51.0244 206.475L51.6934 203.994C51.9268 204.057 52.1664 203.943 52.2705 203.735L52.3066 203.642L53.2344 200.194C53.3062 199.928 53.1485 199.653 52.8818 199.581L52.8809 199.58L53.5488 197.1L53.5498 197.101C53.7832 197.163 54.0228 197.05 54.127 196.842L54.1631 196.747L55.0908 193.301C55.1626 193.034 55.0047 192.759 54.7383 192.688L54.7373 192.687L55.4053 190.205L55.4062 190.206C55.6561 190.273 55.9096 190.138 56 189.901C56.0904 190.138 56.3439 190.273 56.5938 190.206V190.205L57.2617 192.687V192.688C56.9953 192.759 56.8374 193.034 56.9092 193.301L57.8369 196.747C57.9087 197.014 58.1836 197.172 58.4502 197.101V197.1L59.1182 199.58V199.581C58.8515 199.653 58.6938 199.928 58.7656 200.194L59.6934 203.642C59.7653 203.908 60.0394 204.065 60.3057 203.994Z" stroke="white" stroke-linecap="round" stroke-dasharray="4 4"/>
</svg>
